<svg width="21" height="22" viewBox="0 0 21 22" fill="none" xmlns="http://www.w3.org/2000/svg">
<path fill-rule="evenodd" clip-rule="evenodd" d="M0.997743 0.615607L0.892069 0.604555C0.507504 0.590497 0.162154 0.862454 0.0947025 1.25218L0.0836507 1.35785C0.0695922 1.74242 0.34155 2.08777 0.731272 2.15522L2.30315 2.42708L3.25579 13.7768L3.2755 13.9474C3.46717 15.2416 4.58034 16.2146 5.90617 16.2146H17.2728L17.444 16.2091C18.6902 16.1295 19.7235 15.1871 19.9053 13.9352L20.894 7.10355L20.911 6.94663C21.002 5.69759 20.0125 4.61354 18.7385 4.61354H4.0542L3.80969 1.69507L3.79126 1.57959C3.71996 1.27926 3.47582 1.0445 3.16441 0.990607L0.997743 0.615607ZM5.78541 14.6455C5.2695 14.589 4.85691 14.1747 4.81285 13.6465L4.18545 6.17604H18.7385L18.8303 6.18279C19.1592 6.23169 19.3968 6.53926 19.3476 6.87984L18.359 13.711L18.3342 13.8332C18.2089 14.3108 17.7761 14.6521 17.2728 14.6521H5.90618L5.78541 14.6455ZM4.15451 19.443C4.15451 18.5721 4.86042 17.8649 5.73159 17.8649C6.60265 17.8649 7.30972 18.572 7.30972 19.443C7.30972 20.3142 6.60253 21.0201 5.73159 21.0201C4.86054 21.0201 4.15451 20.3141 4.15451 19.443ZM15.8747 19.443C15.8747 18.572 16.5818 17.8649 17.4528 17.8649C18.3239 17.8649 19.031 18.572 19.031 19.443C19.031 20.3142 18.3238 21.0201 17.4528 21.0201C16.5819 21.0201 15.8747 20.3142 15.8747 19.443ZM16.3838 9.24479C16.3838 8.81331 16.034 8.46354 15.6025 8.46354H12.714L12.608 8.47067C12.2266 8.5224 11.9327 8.84927 11.9327 9.24479C11.9327 9.67626 12.2825 10.026 12.714 10.026H15.6025L15.7085 10.0189C16.0899 9.96717 16.3838 9.6403 16.3838 9.24479Z" fill="#E02C2B"/>
</svg>
