<svg width="19" height="21" viewBox="0 0 19 21" fill="none" xmlns="http://www.w3.org/2000/svg">
<path fill-rule="evenodd" clip-rule="evenodd" d="M9.53004 0.0833803C4.72897 0.0670697 0.807433 3.88682 0.650695 8.66807L0.645874 8.96484C0.725675 11.3084 1.52303 13.5424 2.92742 15.3829L3.25725 15.8134C4.59775 17.5178 6.19078 19.0139 7.97949 20.247L8.41016 20.5369L8.473 20.5862C9.08608 21.0267 9.91385 21.0267 10.5269 20.5862L10.5792 20.5432C11.9985 19.6228 13.3073 18.5413 14.4797 17.3201C16.8632 14.7971 18.2997 11.97 18.354 9.09893L18.3541 8.99233C18.3704 4.17908 14.5624 0.245485 9.79583 0.0882141L9.53004 0.0833803ZM9.52468 1.66402C13.4606 1.67748 16.6563 4.82231 16.7749 8.73865L16.7783 9.08397C16.7327 11.4911 15.4724 13.9713 13.3403 16.2283C12.2531 17.3607 11.0341 18.3673 9.71208 19.2234L9.62397 19.2896C9.55277 19.3514 9.44716 19.3514 9.37596 19.2896L9.29032 19.225C7.32084 17.9391 5.5923 16.3157 4.18375 14.4289C3.04918 12.9419 2.37687 11.1639 2.24154 9.30925L2.22166 8.93736C2.23503 4.99189 5.37016 1.78643 9.27447 1.66741L9.52468 1.66402ZM9.49996 5.70967C7.63705 5.70967 6.12687 7.22452 6.12687 9.09318C6.12687 10.9618 7.63705 12.4767 9.49996 12.4767C11.3629 12.4767 12.8731 10.9618 12.8731 9.09318C12.8731 7.22452 11.3629 5.70967 9.49996 5.70967ZM9.49996 7.29032C10.4926 7.29032 11.2973 8.09749 11.2973 9.09318C11.2973 10.0889 10.4926 10.896 9.49996 10.896C8.50733 10.896 7.70265 10.0889 7.70265 9.09318C7.70265 8.09749 8.50733 7.29032 9.49996 7.29032Z" fill="#E02C2B"/>
</svg>
