<svg width="24" height="19" viewBox="0 0 24 19" fill="none" xmlns="http://www.w3.org/2000/svg">
<path fill-rule="evenodd" clip-rule="evenodd" d="M12.4352 0.580719C9.7732 0.580719 7.63496 2.71895 7.63496 5.38098C7.63496 8.04379 9.77302 10.1822 12.4352 10.1822C15.0974 10.1822 17.2355 8.04379 17.2355 5.38098C17.2355 2.71895 15.0973 0.580719 12.4352 0.580719ZM12.4352 2.14322C14.2343 2.14322 15.673 3.5819 15.673 5.38098C15.673 7.1809 14.2344 8.61969 12.4352 8.61969C10.636 8.61969 9.19746 7.1809 9.19746 5.38098C9.19746 3.5819 10.6361 2.14322 12.4352 2.14322ZM6.55213 1.56184C6.98361 1.56184 7.33338 1.91162 7.33338 2.34309C7.33338 2.77456 6.98361 3.12434 6.55213 3.12434C5.31425 3.12434 4.31029 4.12786 4.31029 5.36522C4.31029 6.60259 5.31425 7.60611 6.55213 7.60611C6.98361 7.60611 7.33338 7.95589 7.33338 8.38736C7.33338 8.81883 6.98361 9.16861 6.55213 9.16861C4.45146 9.16861 2.74779 7.46569 2.74779 5.36522C2.74779 3.26476 4.45146 1.56184 6.55213 1.56184ZM22.1324 5.36522C22.1324 3.26476 20.4287 1.56184 18.3281 1.56184C17.8966 1.56184 17.5468 1.91162 17.5468 2.34309C17.5468 2.77456 17.8966 3.12434 18.3281 3.12434C19.5659 3.12434 20.5699 4.12786 20.5699 5.36522C20.5699 6.60259 19.5659 7.60611 18.3281 7.60611C17.8966 7.60611 17.5468 7.95589 17.5468 8.38736C17.5468 8.81883 17.8966 9.16861 18.3281 9.16861C20.4287 9.16861 22.1324 7.46569 22.1324 5.36522ZM21.3499 11.1198C20.8497 11.0069 20.3151 10.9297 19.7716 10.8922C19.3412 10.8625 18.9681 11.1874 18.9385 11.6179C18.9088 12.0483 19.2336 12.4213 19.6641 12.451C20.1292 12.4831 20.5851 12.5489 21.0283 12.6486C21.7175 12.7839 22.1669 13.0081 22.2784 13.2418C22.3623 13.4182 22.3623 13.6256 22.2776 13.8042C22.1676 14.0355 21.7219 14.2586 21.0424 14.3983C20.6198 14.4852 20.3477 14.8983 20.4346 15.3209C20.5215 15.7435 20.9345 16.0157 21.3572 15.9288C22.4803 15.6978 23.303 15.286 23.689 14.4745C23.9751 13.8712 23.9751 13.1715 23.689 12.5698C23.3003 11.7553 22.4634 11.3378 21.3499 11.1198ZM5.94173 11.6179C5.91204 11.1874 5.53903 10.8625 5.10858 10.8922C4.56505 10.9297 4.0305 11.0069 3.50886 11.1243L3.29381 11.1698C2.3067 11.3953 1.55363 11.8098 1.19216 12.5697C0.90481 13.1709 0.90481 13.8719 1.19246 14.4752C1.57676 15.2858 2.39944 15.6977 3.52303 15.9288C3.94566 16.0157 4.35872 15.7435 4.44563 15.3209C4.53253 14.8983 4.26038 14.4852 3.83775 14.3983C3.15849 14.2586 2.7133 14.0357 2.60359 13.8043C2.51812 13.625 2.51812 13.4188 2.60254 13.2422C2.71399 13.0079 3.16291 12.7838 3.83049 12.6531L4.1776 12.5821C4.52362 12.5181 4.86724 12.4751 5.21608 12.451C5.64653 12.4213 5.97142 12.0483 5.94173 11.6179ZM5.38244 14.9006C5.38244 12.4152 7.95321 11.5412 12.4352 11.5412L12.7528 11.5427C17.0475 11.583 19.488 12.459 19.488 14.8824C19.488 17.2488 17.1551 18.1548 13.0623 18.2358L12.4352 18.2418C7.94294 18.2418 5.38244 17.3831 5.38244 14.9006ZM17.9255 14.8824C17.9255 13.7256 16.0708 13.1037 12.4352 13.1037C8.80323 13.1037 6.94494 13.7355 6.94494 14.9006C6.94494 16.0575 8.79909 16.6793 12.4352 16.6793C16.0661 16.6793 17.9255 16.0469 17.9255 14.8824Z" fill="#E02C2B"/>
</svg>
