<svg width="17" height="22" viewBox="0 0 17 22" fill="none" xmlns="http://www.w3.org/2000/svg">
<path fill-rule="evenodd" clip-rule="evenodd" d="M8.57983 0.719177C5.50514 0.719177 3.0126 3.22234 3.0126 6.31015C3.0126 9.39795 5.50514 11.9011 8.57983 11.9011C11.6545 11.9011 14.1471 9.39795 14.1471 6.31015C14.1471 3.22234 11.6545 0.719177 8.57983 0.719177ZM8.57904 2.23546C10.8194 2.23546 12.6356 4.0594 12.6356 6.30935C12.6356 8.5593 10.8194 10.3832 8.57904 10.3832C6.33864 10.3832 4.52244 8.5593 4.52244 6.30935C4.52244 4.0594 6.33864 2.23546 8.57904 2.23546ZM6.30134 14.1548C5.48634 14.2113 4.66253 14.3277 3.84994 14.5018C2.28156 14.8249 1.02683 15.4704 0.492783 16.543C0.291356 16.9625 0.190085 17.4117 0.191794 17.8664C0.191189 18.3179 0.291641 18.7676 0.485845 19.179C0.998631 20.2393 2.10721 20.8394 3.60414 21.172L3.87229 21.228C4.66281 21.4063 5.48687 21.5264 6.31645 21.5828C6.38711 21.6035 6.5555 21.6227 6.73929 21.6321L6.89047 21.6378C6.9682 21.6396 7.05642 21.64 7.18786 21.64C8.38025 21.7056 9.61638 21.6865 10.8468 21.5818C11.5025 21.5369 12.1626 21.4512 12.8171 21.3255L13.3069 21.2239C14.9233 20.905 16.1337 20.2986 16.664 19.1802C17.0571 18.3499 17.0571 17.3864 16.6642 16.5565C16.1352 15.441 14.9402 14.8396 13.2946 14.5006C12.649 14.3628 11.9929 14.2608 11.3321 14.1956L10.8491 14.1548C9.33607 14.0213 7.81434 14.0213 6.30134 14.1548ZM10.7161 15.6652L10.7294 15.6663C11.4877 15.7197 12.2414 15.8261 12.985 15.9848C14.2073 16.2367 15.0369 16.6541 15.2993 17.2076C15.4969 17.6249 15.4969 18.1098 15.2991 18.5276C15.0539 19.0447 14.3089 19.4442 13.2321 19.6884L12.9963 19.7383C12.2381 19.9075 11.4869 20.0165 10.7307 20.0684C9.55744 20.1682 8.39109 20.1862 7.22769 20.1233L6.81521 20.1162C6.70071 20.1103 6.60421 20.0993 6.51477 20.0813C5.80663 20.0279 5.16941 19.9433 4.55071 19.8207L4.18129 19.7425C2.95515 19.5022 2.11831 19.0829 1.84698 18.5219C1.75204 18.3207 1.70133 18.0936 1.70163 17.8637C1.70078 17.6352 1.75082 17.4132 1.84797 17.2108C2.11178 16.6811 2.99863 16.2249 4.15856 15.9859C4.9075 15.8254 5.66085 15.7191 6.41885 15.6663C7.85777 15.5395 9.29104 15.5395 10.7161 15.6652Z" fill="#E02C2B"/>
</svg>
