<svg width="23" height="19" viewBox="0 0 23 19" fill="none" xmlns="http://www.w3.org/2000/svg">
<path fill-rule="evenodd" clip-rule="evenodd" d="M18.6426 0.125H4.35733C1.97669 0.125 0.0427378 2.0444 0.0427378 4.41806L0.041626 7.28703C0.0414685 7.69396 0.342243 8.03034 0.732539 8.08357L0.841045 8.09091C1.71452 8.09091 2.36173 8.69891 2.36173 9.5011C2.36173 10.3308 1.68688 11.0007 0.841045 11.0007C0.399538 11.0007 0.041626 11.3605 0.041626 11.8043V14.5819C0.041626 16.9559 1.97481 18.875 4.35622 18.875H18.6437C21.0251 18.875 22.9583 16.9559 22.9583 14.5819V11.8043C22.9583 11.3605 22.6004 11.0007 22.1589 11.0007C21.313 11.0007 20.6382 10.3308 20.6382 9.5011C20.6382 8.67111 21.3134 8.00042 22.1589 8.00042C22.6005 8.00042 22.9585 7.64045 22.9583 7.19653L22.9572 4.41774C22.9572 2.0444 21.0232 0.125 18.6426 0.125ZM18.6426 1.73214L18.8214 1.73786C20.2399 1.82894 21.3583 2.99587 21.3583 4.41806L21.3584 6.49679L21.2727 6.51988C19.9808 6.89897 19.0394 8.0867 19.0394 9.5011L19.0446 9.68424C19.1219 11.0171 20.0369 12.1189 21.2727 12.4813L21.3595 12.5043V14.5819C21.3595 16.0638 20.1465 17.2679 18.6437 17.2679H14.271V15.6715L14.2637 15.5625C14.2107 15.1703 13.8763 14.868 13.4715 14.868C13.03 14.868 12.6721 15.2277 12.6721 15.6715V17.2679H4.35622L4.17733 17.2621C2.75828 17.1711 1.64046 16.0045 1.64046 14.5819V12.5032L1.72726 12.4813C3.01921 12.1025 3.96057 10.9154 3.96057 9.5011L3.95531 9.31897C3.87855 7.99551 2.96886 6.94644 1.73044 6.60329L1.6394 6.58036L1.64157 4.41837C1.64157 2.93661 2.85517 1.73214 4.35733 1.73214H12.6721V3.78961L12.6794 3.89865C12.7324 4.29087 13.0668 4.59318 13.4715 4.59318C13.913 4.59318 14.271 4.23341 14.271 3.78961V1.73214H18.6426ZM13.4715 6.02171C13.8763 6.02171 14.2107 6.32402 14.2637 6.71625L14.271 6.82529V11.9906C14.271 12.4344 13.913 12.7942 13.4715 12.7942C13.0668 12.7942 12.7324 12.4919 12.6794 12.0997L12.6721 11.9906V6.82529C12.6721 6.38149 13.03 6.02171 13.4715 6.02171Z" fill="#E02C2B"/>
</svg>
