<svg width="14" height="16" viewBox="0 0 14 16" fill="none" xmlns="http://www.w3.org/2000/svg">
<path d="M13.1875 2.9375H9.8125V2.375C9.8125 1.44445 9.05555 0.6875 8.125 0.6875H5.875C4.94445 0.6875 4.1875 1.44445 4.1875 2.375V2.9375H0.8125C0.501578 2.9375 0.25 3.18936 0.25 3.5C0.25 3.81064 0.501578 4.0625 0.8125 4.0625H1.375V12.5C1.375 14.0507 2.63679 15.3125 4.1875 15.3125H9.8125C11.3632 15.3125 12.625 14.0507 12.625 12.5V4.0625H13.1875C13.4984 4.0625 13.75 3.81064 13.75 3.5C13.75 3.18936 13.4984 2.9375 13.1875 2.9375ZM5.3125 2.375C5.3125 2.06492 5.56464 1.8125 5.875 1.8125H8.125C8.43536 1.8125 8.6875 2.06492 8.6875 2.375V2.9375H5.3125V2.375ZM11.5 12.5C11.5 13.4306 10.7431 14.1875 9.8125 14.1875H4.1875C3.25695 14.1875 2.5 13.4306 2.5 12.5V4.0625H11.5V12.5ZM6.4375 11.375V6.875C6.4375 6.56436 6.68908 6.3125 7 6.3125C7.31092 6.3125 7.5625 6.56436 7.5625 6.875V11.375C7.5625 11.6856 7.31092 11.9375 7 11.9375C6.68908 11.9375 6.4375 11.6856 6.4375 11.375ZM4.1875 11.375V6.875C4.1875 6.56436 4.43908 6.3125 4.75 6.3125C5.06092 6.3125 5.3125 6.56436 5.3125 6.875V11.375C5.3125 11.6856 5.06092 11.9375 4.75 11.9375C4.43908 11.9375 4.1875 11.6856 4.1875 11.375ZM8.6875 11.375V6.875C8.6875 6.56436 8.93908 6.3125 9.25 6.3125C9.56092 6.3125 9.8125 6.56436 9.8125 6.875V11.375C9.8125 11.6856 9.56092 11.9375 9.25 11.9375C8.93908 11.9375 8.6875 11.6856 8.6875 11.375Z" fill="#232323"/>
</svg>
