<svg width="25" height="24" viewBox="0 0 25 24" fill="none" xmlns="http://www.w3.org/2000/svg">
<g opacity="1">
<path fill-rule="evenodd" clip-rule="evenodd" d="M3.37782 2.51099L3.27637 2.50038C2.90719 2.48688 2.57565 2.74796 2.5109 3.12209L2.50029 3.22354C2.48679 3.59272 2.74787 3.92426 3.122 3.98901L4.63101 4.25L5.54554 15.1457L5.56446 15.3095C5.74846 16.5519 6.81711 17.486 8.08991 17.486H19.0019L19.1663 17.4808C20.3626 17.4044 21.3545 16.4996 21.5291 15.2978L22.4782 8.73941L22.4946 8.58877C22.5819 7.38969 21.632 6.349 20.4089 6.349H6.31201L6.07728 3.54727L6.05959 3.43641C5.99115 3.14809 5.75676 2.92273 5.45782 2.87099L3.37782 2.51099ZM7.97397 15.9797C7.4787 15.9255 7.08261 15.5277 7.04031 15.0207L6.43801 7.849H20.4089L20.4971 7.85548C20.8128 7.90242 21.0409 8.19769 20.9936 8.52465L20.0446 15.0826L20.0208 15.1998C19.9005 15.6584 19.485 15.986 19.0019 15.986H8.08991L7.97397 15.9797ZM6.40831 20.5853C6.40831 19.7492 7.08598 19.0703 7.92231 19.0703C8.75852 19.0703 9.43731 19.7491 9.43731 20.5853C9.43731 21.4216 8.75841 22.0993 7.92231 22.0993C7.0861 22.0993 6.40831 21.4215 6.40831 20.5853ZM17.6597 20.5853C17.6597 19.7491 18.3385 19.0703 19.1747 19.0703C20.0109 19.0703 20.6897 19.7491 20.6897 20.5853C20.6897 21.4216 20.0108 22.0993 19.1747 22.0993C18.3386 22.0993 17.6597 21.4216 17.6597 20.5853ZM18.1484 10.795C18.1484 10.3808 17.8126 10.045 17.3984 10.045H14.6254L14.5236 10.0518C14.1576 10.1015 13.8754 10.4153 13.8754 10.795C13.8754 11.2092 14.2112 11.545 14.6254 11.545H17.3984L17.5002 11.5382C17.8663 11.4885 18.1484 11.1747 18.1484 10.795Z" fill="#FFFFFF"/>
</g>
</svg>
