<svg width="25" height="24" viewBox="0 0 25 24" fill="none" xmlns="http://www.w3.org/2000/svg">
<g opacity="1">
<path fill-rule="evenodd" clip-rule="evenodd" d="M12.2788 2.00005C7.66977 1.98439 3.9051 5.65135 3.75463 10.2414L3.75 10.5263C3.82661 12.7761 4.59207 14.9207 5.94028 16.6876L6.25692 17.1008C7.5438 18.7371 9.07311 20.1733 10.7903 21.3571L11.2037 21.6354L11.264 21.6828C11.8526 22.1057 12.6473 22.1057 13.2358 21.6828L13.286 21.6415C14.6486 20.7579 15.905 19.7196 17.0305 18.5473C19.3186 16.1252 20.6977 13.4112 20.7498 10.655L20.7499 10.5526C20.7655 5.93192 17.1098 2.15567 12.534 2.00469L12.2788 2.00005ZM12.2737 3.51747C16.0522 3.53038 19.12 6.54942 19.2339 10.3091L19.2371 10.6406C19.1934 12.9514 17.9834 15.3324 15.9366 17.4991C14.8929 18.5862 13.7227 19.5526 12.4536 20.3745L12.369 20.438C12.3006 20.4974 12.1992 20.4974 12.1309 20.438L12.0487 20.376C10.158 19.1416 8.49857 17.583 7.14636 15.7717C6.05718 14.3442 5.41175 12.6374 5.28184 10.8569L5.26275 10.4999C5.27559 6.71221 8.28532 3.63498 12.0335 3.52071L12.2737 3.51747ZM12.2499 7.40129C10.4615 7.40129 9.01176 8.85554 9.01176 10.6495C9.01176 12.4434 10.4615 13.8976 12.2499 13.8976C14.0383 13.8976 15.4881 12.4434 15.4881 10.6495C15.4881 8.85554 14.0383 7.40129 12.2499 7.40129ZM12.2499 8.91871C13.2028 8.91871 13.9753 9.69359 13.9753 10.6495C13.9753 11.6053 13.2028 12.3802 12.2499 12.3802C11.297 12.3802 10.5245 11.6053 10.5245 10.6495C10.5245 9.69359 11.297 8.91871 12.2499 8.91871Z" fill="#FFFFFF"/>
</g>
</svg>
