<svg width="22" height="23" viewBox="0 0 22 23" fill="none" xmlns="http://www.w3.org/2000/svg">
<path d="M19.94 10.7321C19.7135 8.70424 18.8042 6.81365 17.3613 5.37081C15.9185 3.92797 14.0279 3.01863 12 2.79212V1.73212C12 1.18212 11.55 0.732117 11 0.732117C10.45 0.732117 10 1.18212 10 1.73212V2.79212C7.97212 3.01863 6.08154 3.92797 4.63869 5.37081C3.19585 6.81365 2.28651 8.70424 2.06 10.7321H1C0.45 10.7321 0 11.1821 0 11.7321C0 12.2821 0.45 12.7321 1 12.7321H2.06C2.28651 14.76 3.19585 16.6506 4.63869 18.0934C6.08154 19.5363 7.97212 20.4456 10 20.6721V21.7321C10 22.2821 10.45 22.7321 11 22.7321C11.55 22.7321 12 22.2821 12 21.7321V20.6721C14.0279 20.4456 15.9185 19.5363 17.3613 18.0934C18.8042 16.6506 19.7135 14.76 19.94 12.7321H21C21.55 12.7321 22 12.2821 22 11.7321C22 11.1821 21.55 10.7321 21 10.7321H19.94ZM11 18.7321C7.13 18.7321 4 15.6021 4 11.7321C4 7.86212 7.13 4.73212 11 4.73212C14.87 4.73212 18 7.86212 18 11.7321C18 15.6021 14.87 18.7321 11 18.7321Z" fill="#E02C2B"/>
<circle opacity="0.3" cx="11" cy="11.7321" r="4" fill="#E02C2B"/>
</svg>
