<svg width="23" height="24" viewBox="0 0 23 24" fill="none" xmlns="http://www.w3.org/2000/svg">
<path d="M2.125 3.375H2.875C2.875 2.34113 3.71613 1.5 4.75 1.5H5.125V0.75H4.75C3.3025 0.75 2.125 1.92788 2.125 3.375Z" fill="DB3E19"/>
<path d="M18.625 22.5V23.25H19C20.4475 23.25 21.625 22.0721 21.625 20.625H20.875C20.875 21.6589 20.0339 22.5 19 22.5H18.625Z" fill="DB3E19"/>
<path d="M17.875 21.375H17.5V22.125H17.875C19.3225 22.125 20.5 20.9471 20.5 19.5H19.75C19.75 20.5339 18.9089 21.375 17.875 21.375Z" fill="#919191"/>
<path d="M7.08438 18.7594L11.0076 19.6646C11.1603 19.7003 11.3163 19.6725 11.4475 19.5881C11.5791 19.503 11.668 19.3721 11.6988 19.2188C11.7599 18.9131 11.5615 18.6113 11.2566 18.5456L6.92125 17.6164C6.74613 17.5789 6.622 17.4229 6.62463 17.244C6.62763 17.0648 6.75663 16.9129 6.9325 16.881L10.0548 16.3133C10.2213 16.2829 10.3656 16.1888 10.4609 16.0485C10.5561 15.9086 10.5903 15.7399 10.5569 15.5738C10.4946 15.2618 10.21 15.0473 9.89088 15.0724L6.28075 15.3731C6.136 15.3881 5.99575 15.312 5.92338 15.1849C5.851 15.0578 5.85963 14.9003 5.94438 14.7818L7.37988 12.7721C7.52763 12.5655 7.50438 12.285 7.32475 12.1054C7.13275 11.9134 6.82225 11.9033 6.61825 12.0818L4.24675 14.157C4.14063 14.2496 3.9925 14.2751 3.8605 14.223L0.25 12.7789V17.625L2.66762 18.4144C2.74 18.4508 2.79925 18.5096 2.83525 18.582L4.71025 22.332C4.76538 22.443 4.86063 22.5255 4.97838 22.5645C5.09575 22.6035 5.22175 22.5945 5.332 22.5394C5.56075 22.425 5.65375 22.146 5.53938 21.9176L4.78938 20.4176C4.714 20.2669 4.7485 20.0843 4.87375 19.9718C4.999 19.8585 5.18463 19.8439 5.32638 19.9335L8.64438 22.0448C8.76213 22.1201 8.90163 22.1404 9.03663 22.1033C9.17125 22.0658 9.28 21.9765 9.34263 21.8513C9.44838 21.6401 9.388 21.3844 9.199 21.2426L6.775 19.425C6.63325 19.3189 6.58525 19.1276 6.65988 18.9668C6.7345 18.8059 6.91225 18.72 7.08438 18.7594Z" fill="#919191"/>
<path d="M18.7529 9.65741L16.3814 7.58216C16.177 7.40291 15.8665 7.41416 15.6749 7.60579C15.4953 7.78541 15.472 8.06629 15.6198 8.27254L17.0556 10.2822C17.1404 10.4007 17.1486 10.5582 17.0766 10.6853C17.0043 10.8124 16.8621 10.8893 16.7193 10.8735L13.1091 10.5728C12.7911 10.5443 12.5054 10.7618 12.4431 11.0742C12.4101 11.2399 12.4439 11.409 12.5391 11.5489C12.6344 11.6892 12.7784 11.7833 12.9453 11.8137L16.0675 12.3814C16.2438 12.4133 16.3724 12.5652 16.3754 12.7444C16.378 12.9237 16.2539 13.0797 16.0788 13.1168L11.7434 14.046C11.4385 14.1117 11.2401 14.4132 11.3013 14.7192C11.332 14.8725 11.4213 15.0038 11.5525 15.0885C11.6838 15.1733 11.8401 15.2007 11.992 15.165L15.9156 14.2598C16.0878 14.22 16.2655 14.3063 16.3398 14.4672C16.4144 14.628 16.3664 14.8189 16.2246 14.9254L13.801 16.7434C13.612 16.8852 13.5516 17.1413 13.6574 17.352C13.72 17.4773 13.8288 17.5665 13.9634 17.604C14.0976 17.6415 14.2375 17.6209 14.356 17.5455L17.6736 15.4343C17.8049 15.3503 17.974 15.357 18.0993 15.45C18.2241 15.5434 18.2785 15.7039 18.2354 15.8535L17.6564 17.88C17.6159 18.0222 17.6939 18.1695 17.8338 18.216C17.9628 18.2595 18.106 18.1999 18.1668 18.0784L20.1648 14.0828C20.2011 14.0104 20.26 13.9512 20.3324 13.9152L22.75 13.125V8.27891L19.1395 9.72304C19.0079 9.77516 18.859 9.74966 18.7529 9.65741Z" fill="#919191"/>
<path d="M2.69687 6.52474L6.44724 5.83061L8.24987 3.20898L4.49949 3.90311L2.69687 6.52474Z" fill="#919191"/>
<path d="M3.92611 13.4415L6.12474 11.5174C6.47011 11.2155 6.93736 11.1394 7.34911 11.2722C7.26811 11.2178 7.20624 11.136 7.18711 11.0325L6.36774 6.60791L2.31174 7.35866L3.39886 13.2304L3.92611 13.4415Z" fill="#919191"/>
<path d="M13.3514 16.1429L14.3564 15.3892L12.1611 15.8958C11.8712 15.9625 11.5757 15.9262 11.3102 15.8028C11.2922 16.039 11.2191 16.2685 11.0822 16.4707C10.873 16.7785 10.5561 16.9848 10.1901 17.0515L8.93124 17.2803L9.66849 17.4385L12.892 16.8415C12.9572 16.57 13.114 16.3207 13.3514 16.1429Z" fill="#919191"/>
<path d="M16.8753 7.01745L17.6249 7.67332L16.6116 2.2002L14.809 4.8222L15.0145 5.9322L14.2769 6.06832L14.1115 5.17432L10.0551 5.92507L10.8741 10.3501C10.8921 10.4479 10.8708 10.5484 10.8145 10.6306C10.7583 10.7127 10.6716 10.7686 10.5738 10.7869L7.62401 11.3329C7.60076 11.3374 7.57789 11.3393 7.55539 11.3393C7.53626 11.3393 7.51864 11.3326 7.49989 11.3296C7.62851 11.3899 7.75001 11.4698 7.85539 11.5752C8.29526 12.0154 8.35226 12.7024 7.99039 13.2079L7.02551 14.5591L9.82864 14.3258C10.0874 14.3044 10.336 14.3566 10.5543 14.4646C10.6158 13.9133 11.0174 13.4341 11.5855 13.3122L14.0691 12.7797L12.8103 12.5509C12.4439 12.4842 12.127 12.2779 11.9178 11.9701C11.7085 11.6622 11.6339 11.2913 11.7066 10.9268C11.8443 10.2406 12.472 9.76657 13.1706 9.82545L15.9738 10.0587L15.0089 8.70757C14.6474 8.2017 14.704 7.5147 15.1439 7.07482C15.6149 6.60495 16.375 6.5802 16.8753 7.01745Z" fill="#919191"/>
<path d="M7.10303 6.46973L9.31478 6.06023L10.0655 10.1151L7.85378 10.5246L7.10303 6.46973Z" fill="#919191"/>
<path d="M9.29274 3.01585L7.49011 5.63747L9.39699 5.28422L11.1996 2.6626L9.29274 3.01585Z" fill="#919191"/>
<path d="M15.9932 1.7749L12.2429 2.4694L10.4402 5.09103L14.1906 4.3969L15.9932 1.7749Z" fill="#919191"/>
</svg>
