<svg width="24" height="22" viewBox="0 0 24 22" fill="none" xmlns="http://www.w3.org/2000/svg">
<path d="M0.499989 8.79971L8.9619 13.7598L11.1602 10.9359L2.25006 6.1192L0.499989 8.79971Z" fill="#919191"/>
<path d="M13.258 10.9275L15.4645 13.762L23.942 8.7928L22.1681 5.92578L13.258 10.9275Z" fill="#919191"/>
<path d="M3.5337 5.22408L12.2065 9.91244L20.8918 5.0369L12.2254 0.845825L3.5337 5.22408Z" fill="#919191"/>
<path d="M2.70967 16.3877L11.5272 21.1543V12.7197L9.66819 15.1077C9.45722 15.3788 9.0848 15.4518 8.79098 15.2795L2.70967 11.7149V16.3877Z" fill="#919191"/>
<path d="M12.8999 12.7169V21.1297L21.7174 16.173V11.7121L15.6361 15.2767C15.3423 15.4489 14.9698 15.376 14.7589 15.1049L12.8999 12.7169Z" fill="#919191"/>
</svg>
