<svg width="17" height="24" viewBox="0 0 17 24" fill="none" xmlns="http://www.w3.org/2000/svg">
<path d="M1.37495 0.748169C0.758194 0.748169 0.251419 1.25859 0.251419 1.87535V20.6246C0.251419 21.2414 0.758194 21.7511 1.37495 21.7511H6.59712L4.96236 17.2496H2.12568C2.07613 17.2499 2.02701 17.2404 1.98117 17.2216C1.93532 17.2028 1.89366 17.175 1.85859 17.14C1.82351 17.105 1.79572 17.0634 1.77683 17.0176C1.75793 16.9718 1.7483 16.9227 1.74849 16.8732V4.12608C1.7483 4.07652 1.75793 4.02742 1.77683 3.98161C1.79572 3.9358 1.82351 3.89421 1.85859 3.8592C1.89366 3.8242 1.93532 3.79648 1.98117 3.77767C2.02701 3.75886 2.07613 3.74936 2.12568 3.74964H13.3757C13.4751 3.75004 13.5704 3.7899 13.6404 3.8605C13.7105 3.9311 13.7496 4.02662 13.7492 4.12608V13.5091C14.3193 13.5596 14.8191 13.8385 15.1584 14.2679C15.1875 14.2637 15.219 14.2651 15.2492 14.2623V1.87552C15.2492 1.25876 14.7425 0.748342 14.1257 0.748342L1.37495 0.748169ZM6.62349 2.24888H8.87422C8.92417 2.24778 8.97383 2.25666 9.0203 2.27501C9.06676 2.29336 9.1091 2.32079 9.14481 2.35572C9.18053 2.39065 9.2089 2.43238 9.22828 2.47843C9.24765 2.52448 9.25763 2.57393 9.25763 2.62389C9.25763 2.67385 9.24765 2.7233 9.22828 2.76935C9.2089 2.8154 9.18053 2.85713 9.14481 2.89206C9.1091 2.92699 9.06676 2.95442 9.0203 2.97277C8.97383 2.99112 8.92417 3 8.87422 2.9989H6.62349C6.57354 3 6.52388 2.99112 6.47741 2.97277C6.43094 2.95442 6.38861 2.92699 6.3529 2.89206C6.31718 2.85713 6.28881 2.8154 6.26943 2.76935C6.25006 2.7233 6.24008 2.67385 6.24008 2.62389C6.24008 2.57393 6.25006 2.52448 6.26943 2.47843C6.28881 2.43238 6.31718 2.39065 6.3529 2.35572C6.38861 2.32079 6.43094 2.29336 6.47741 2.27501C6.52388 2.25666 6.57354 2.24778 6.62349 2.24888ZM7.74995 6.00037C7.13308 6.00037 6.62349 6.50698 6.62349 7.12387C6.62349 7.29551 6.66598 7.45726 6.73628 7.60364C5.55968 7.85277 4.84576 8.52327 4.46943 9.19224C4.28445 9.52109 4.17345 9.8478 4.10542 10.1261H8.63545C8.97029 9.89083 9.37609 9.75107 9.81245 9.75107C10.2491 9.75107 10.6551 9.89055 10.9902 10.1261H11.3945C11.3264 9.8478 11.2157 9.52112 11.0305 9.19224C10.6539 8.52281 9.93941 7.85164 8.76143 7.6029C8.8313 7.45666 8.87349 7.29528 8.87349 7.12387C8.87349 6.50698 8.36684 6.00037 7.74995 6.00037ZM9.81245 10.5011C9.09181 10.5011 8.50068 11.0922 8.50068 11.8129V16.6461C8.34677 16.3894 8.19244 16.1338 8.03853 15.8771C7.88711 15.6245 7.70069 15.38 7.44014 15.2069C7.17959 15.0339 6.82381 14.9491 6.47114 15.0436C5.77483 15.2301 5.33037 15.9614 5.55122 16.6739L7.09737 20.9483C7.49802 22.4436 9.07637 23.2071 9.07637 23.2071C9.13031 23.2348 9.19012 23.2488 9.25068 23.2481H14.8252C14.9607 23.2481 15.058 23.2224 15.1364 23.1441C15.1364 23.1441 16.75 21.5753 16.75 19.5003V16.3113C16.7499 15.5906 16.1581 14.9996 15.4375 14.9996C15.2086 14.9996 14.9963 15.0643 14.8083 15.1687C14.6394 14.6389 14.1472 14.2488 13.5639 14.2488C13.3344 14.2488 13.1206 14.3144 12.9318 14.4194C12.7632 13.8891 12.2703 13.4988 11.6867 13.4988C11.4852 13.4988 11.2961 13.549 11.125 13.6313V11.8127C11.125 11.0921 10.5331 10.501 9.81245 10.501V10.5011ZM3.60591 10.8761C3.3946 10.8952 3.24909 11.0565 3.24922 11.2489C3.24908 12.073 3.92471 12.7489 4.74922 12.7489H7.75068V11.8129C7.75068 11.4762 7.83488 11.1581 7.98066 10.8761H3.60591ZM11.645 10.8761C11.7909 11.1581 11.875 11.476 11.875 11.8129V12.2274C12.1046 11.9635 12.2484 11.6238 12.2485 11.2489C12.2477 11.0433 12.081 10.8768 11.875 10.8761H11.645Z" fill="#919191"/>
</svg>
