<svg width="21" height="24" viewBox="0 0 21 24" fill="none" xmlns="http://www.w3.org/2000/svg">
<path d="M4.81506 4.20267C4.81506 2.66054 6.0694 1.4062 7.61154 1.4062C9.15368 1.4062 10.408 2.66054 10.408 4.20267V5.93605H11.8142V4.20267C11.8142 1.88525 9.92896 0 7.61154 0C5.29411 0 3.40886 1.88525 3.40886 4.20267V5.93605H4.81506V4.20267Z" fill="#DB3E19"/>
<path d="M15.7237 13.4534C12.8161 13.4534 10.4505 15.8189 10.4505 18.7266C10.4505 21.6343 12.8161 23.9999 15.7237 23.9999C18.6314 23.9999 20.997 21.6343 20.997 18.7266C20.997 15.8189 18.6314 13.4534 15.7237 13.4534ZM15.1488 21.0547L12.5206 18.4265L13.5149 17.4322L15.1488 19.0661L17.9326 16.2824L18.9269 17.2767L15.1488 21.0547Z" fill="#DB3E19"/>
<path d="M14.7521 12.1182L14.3801 5.9361H11.8142V8.2185H10.408V5.9361H7.5965V8.5536L9.09382 9.54769V14.1259H4.69292V9.54769L6.19025 8.5536V5.9361H4.81503V8.2185H3.40882V5.9361H0.839221L0.00299835 20.9093H9.41073C9.17346 20.225 9.04418 19.4908 9.04418 18.7267C9.04423 15.3737 11.5279 12.5901 14.7521 12.1182Z" fill="#DB3E19"/>
<path d="M6.09919 10.3019V12.7196H7.68764V10.3019L6.89341 9.7746L6.09919 10.3019Z" fill="#DB3E19"/>
</svg>
