<svg width="24" height="24" viewBox="0 0 24 24" fill="none" xmlns="http://www.w3.org/2000/svg">
<path d="M2.00009 6.00024H7.25051C7.39825 6.00024 7.54455 6.02935 7.68105 6.08588C7.81755 6.14242 7.94157 6.2253 8.04604 6.32977C8.15052 6.43424 8.23339 6.55826 8.28993 6.69476C8.34647 6.83126 8.37557 6.97756 8.37557 7.1253V11.2505C8.37557 11.5489 8.25703 11.8351 8.04604 12.0461C7.83504 12.2571 7.54887 12.3756 7.25048 12.3756H2.00006C1.70168 12.3756 1.41551 12.2571 1.20452 12.0461C0.993533 11.8351 0.875 11.5489 0.875 11.2505V7.12533C0.875 6.97759 0.904101 6.83128 0.960642 6.69478C1.01718 6.55828 1.10006 6.43425 1.20453 6.32978C1.309 6.2253 1.43303 6.14243 1.56953 6.08589C1.70604 6.02935 1.85234 6.00025 2.00009 6.00025V6.00024Z" fill="#DB3E19"/>
<path d="M12.8758 4.5C13.9113 4.5 14.7508 3.66053 14.7508 2.625C14.7508 1.58947 13.9113 0.75 12.8758 0.75C11.8402 0.75 11.0008 1.58947 11.0008 2.625C11.0008 3.66053 11.8402 4.5 12.8758 4.5Z" fill="#DB3E19"/>
<path d="M5.00105 13.4447C5.00116 14.027 5.23013 14.5859 5.63858 15.0008H11.7349V13.4427C11.7349 13.3437 11.6956 13.2487 11.6255 13.1787C11.5555 13.1087 11.4605 13.0693 11.3615 13.0693H5.37444C5.27521 13.0698 5.1802 13.1096 5.11022 13.1799C5.04024 13.2503 5.00098 13.3455 5.00105 13.4447Z" fill="#DB3E19"/>
<path d="M23.6512 19.2596C23.4683 18.5835 23.0583 17.991 22.49 17.5816C21.9216 17.1723 21.2297 16.9711 20.5305 17.0119C20.5893 16.7929 20.6195 16.5671 20.6206 16.3404C20.6135 15.9808 20.5193 15.6283 20.346 15.3132C20.1727 14.998 19.9254 14.7297 19.6255 14.5312C18.8202 13.997 18.2181 12.6385 18.1271 11.2095H18.8453C19.1422 11.2096 19.4271 11.0919 19.6374 10.8823C19.8477 10.6726 19.9662 10.3881 19.967 10.0912V9.34644C19.9662 9.04952 19.8477 8.76504 19.6374 8.55542C19.4271 8.34581 19.1422 8.22818 18.8453 8.22834H16.2805C14.1121 7.60387 13.4597 6.88466 13.0699 6.45377C13.0618 6.44498 13.0539 6.43619 13.0462 6.42759C13.0852 6.14008 13.0331 5.8476 12.8974 5.59116C12.7617 5.33472 12.5492 5.12718 12.2896 4.99764C12.1042 4.90917 11.9013 4.86367 11.696 4.86451C11.4906 4.86536 11.2881 4.91254 11.1035 5.00253C10.9189 5.09252 10.757 5.22301 10.6298 5.38427C10.5026 5.54553 10.4135 5.73341 10.369 5.93391L9.29303 11.0752C9.26131 11.228 9.26189 11.3856 9.29473 11.5381C9.32757 11.6906 9.39193 11.8345 9.48369 11.9606C9.57545 12.0867 9.69258 12.1923 9.82754 12.2705C9.96251 12.3486 10.1123 12.3977 10.2674 12.4145L12.111 12.6185C12.2061 12.6286 12.2936 12.6748 12.3556 12.7476C12.4175 12.8203 12.4492 12.9141 12.444 13.0095L12.1534 17.9242C11.8519 17.6606 11.6375 17.3117 11.5386 16.9237C11.4396 16.5356 11.4609 16.1266 11.5995 15.7509H5.8675C5.26286 16.7525 4.29508 18.6304 4.68665 19.852C4.75966 20.0819 4.88651 20.291 5.05666 20.462C5.22681 20.6329 5.43533 20.7608 5.66488 20.8349C5.83345 20.8865 6.01026 20.9057 6.18597 20.8915C6.22853 21.4981 6.49951 22.0659 6.94426 22.4805C7.38901 22.8952 7.97443 23.1257 8.58247 23.1257C9.19051 23.1257 9.77593 22.8951 10.2207 22.4805C10.6654 22.0658 10.9364 21.498 10.9789 20.8914L17.4063 20.8913C17.4688 20.8879 17.5299 20.8721 17.5863 20.8449C17.6426 20.8177 17.693 20.7795 17.7345 20.7327C17.78 20.9542 17.854 21.1689 17.9546 21.3715C17.9827 21.4305 18.0259 21.481 18.0797 21.5181C18.1335 21.5552 18.1962 21.5775 18.2613 21.5827C18.3264 21.588 18.3918 21.5761 18.4509 21.5482C18.51 21.5203 18.5608 21.4773 18.5981 21.4237C18.6416 21.361 18.6891 21.2998 18.7389 21.2395C18.7888 21.5633 18.9044 21.8735 19.0787 22.1509C19.2529 22.4284 19.4822 22.6672 19.7522 22.8527C20.0223 23.0382 20.3275 23.1664 20.649 23.2295C20.9705 23.2926 21.3015 23.2892 21.6216 23.2195C21.9417 23.1498 22.2442 23.0153 22.5104 22.8243C22.7766 22.6333 23.0009 22.3898 23.1694 22.1089C23.3379 21.8279 23.4471 21.5154 23.4903 21.1906C23.5335 20.8659 23.5098 20.5357 23.4205 20.2205C23.5172 20.2099 23.6059 20.1617 23.6673 20.0862C23.7287 20.0108 23.7578 19.9142 23.7485 19.8173C23.7342 19.6287 23.7017 19.4419 23.6512 19.2596ZM8.58233 22.379C8.17264 22.379 7.77757 22.2268 7.47376 21.9519C7.16995 21.677 6.97908 21.2991 6.93817 20.8915L10.2267 20.8915C10.1857 21.2991 9.99484 21.677 9.691 21.9519C9.38716 22.2268 8.99205 22.379 8.58233 22.379ZM15.8525 18.2827H14.3957L15.0399 12.1928C15.0656 11.9461 15.0086 11.6979 14.8779 11.4872C14.7472 11.2765 14.5501 11.1152 14.3177 11.0287L12.48 10.343C12.3956 10.3116 12.3254 10.2507 12.2825 10.1715C12.2396 10.0922 12.2269 10.0001 12.2467 9.91228L12.5264 8.70665C13.4823 9.46889 14.6365 9.94155 15.8525 10.0688V18.2827ZM21.3223 22.4897C21.0735 22.5225 20.8205 22.4982 20.5825 22.4187C20.3445 22.3393 20.1277 22.2067 19.9484 22.0311C19.7692 21.8555 19.6322 21.6414 19.5479 21.405C19.4636 21.1687 19.4342 20.9162 19.4618 20.6668L19.5761 20.5246C20.4348 19.9923 21.458 19.791 22.4544 19.9584L22.543 20.0268C22.6792 20.2624 22.755 20.528 22.7637 20.7999C22.7724 21.0719 22.7137 21.3417 22.5929 21.5855C22.4721 21.8293 22.2928 22.0394 22.0712 22.1972C21.8495 22.355 21.5922 22.4555 21.3223 22.4897Z" fill="#DB3E19"/>
</svg>
