<svg width="25" height="24" viewBox="0 0 25 24" fill="none" xmlns="http://www.w3.org/2000/svg">
<g opacity="1">
<path fill-rule="evenodd" clip-rule="evenodd" d="M19.6069 3H5.89308C3.60766 3 1.75107 4.84262 1.75107 7.12134L1.75 9.87555C1.74985 10.2662 2.03859 10.5891 2.41328 10.6402L2.51744 10.6473C3.35598 10.6473 3.9773 11.231 3.9773 12.0011C3.9773 12.7975 3.32944 13.4407 2.51744 13.4407C2.0936 13.4407 1.75 13.786 1.75 14.2121V16.8787C1.75 19.1577 3.60585 21 5.89201 21H19.608C21.8941 21 23.75 19.1577 23.75 16.8787V14.2121C23.75 13.786 23.4064 13.4407 22.9826 13.4407C22.1706 13.4407 21.5227 12.7975 21.5227 12.0011C21.5227 11.2043 22.1709 10.5604 22.9826 10.5604C23.4065 10.5604 23.7502 10.2148 23.75 9.78867L23.7489 7.12103C23.7489 4.84262 21.8923 3 19.6069 3ZM19.6069 4.54286L19.7786 4.54835C21.1403 4.63579 22.2141 5.75603 22.2141 7.12134L22.2141 9.11691L22.1318 9.13909C20.8916 9.50301 19.9878 10.6432 19.9878 12.0011L19.9929 12.1769C20.067 13.4564 20.9454 14.5142 22.1318 14.8621L22.2151 14.8841V16.8787C22.2151 18.3013 21.0507 19.4571 19.608 19.4571H15.4102V17.9247L15.4032 17.82C15.3523 17.4435 15.0312 17.1532 14.6427 17.1532C14.2189 17.1532 13.8753 17.4986 13.8753 17.9247V19.4571H5.89201L5.72027 19.4517C4.35799 19.3642 3.28488 18.2444 3.28488 16.8787V14.8831L3.36821 14.8621C4.60849 14.4984 5.51218 13.3588 5.51218 12.0011L5.50714 11.8262C5.43344 10.5557 4.56015 9.54859 3.37127 9.21916L3.28386 9.19714L3.28595 7.12164C3.28595 5.69915 4.45101 4.54286 5.89308 4.54286H13.8753V6.51802L13.8823 6.6227C13.9331 6.99924 14.2542 7.28945 14.6427 7.28945C15.0666 7.28945 15.4102 6.94407 15.4102 6.51802V4.54286H19.6069ZM14.6427 8.66085C15.0312 8.66085 15.3523 8.95106 15.4032 9.3276L15.4102 9.43227V14.391C15.4102 14.8171 15.0666 15.1624 14.6427 15.1624C14.2542 15.1624 13.9331 14.8722 13.8823 14.4957L13.8753 14.391V9.43227C13.8753 9.00623 14.2189 8.66085 14.6427 8.66085Z" fill="#FFFFFF"/>
</g>
</svg>
